<svg width="336" height="60" viewBox="0 0 336 60" fill="none" xmlns="http://www.w3.org/2000/svg">
<path opacity="0.8" d="M45.3887 32.9189L24.1925 11.5392L13.4628 0.712675C12.3921 0.24033 11.2369 -0.0022981 10.0695 1.64043e-05C4.90353 1.64043e-05 0.702893 4.81046 0.591734 10.7849V36.601C0.573176 38.0571 0.837363 39.5027 1.36921 40.8551C1.90105 42.2075 2.69014 43.4404 3.6914 44.4833C4.69266 45.5261 5.88649 46.3585 7.2047 46.933C8.52292 47.5075 9.9397 47.8127 11.3741 47.8313H41.0769C42.8216 46.9634 44.2934 45.6188 45.3269 43.9487C46.3603 42.2785 46.9146 40.349 46.9274 38.3767C46.9265 36.4473 46.3935 34.5567 45.3887 32.9189Z" fill="#6E00FA"/>
<path opacity="0.8" d="M43.6164 11.958H13.9157C12.1707 12.826 10.6988 14.1705 9.6652 15.8407C8.6316 17.5108 8.07726 19.4404 8.06446 21.4126C8.06262 23.3426 8.59151 25.2348 9.59162 26.8763L30.7906 48.2561L41.5509 59.0767C42.6165 59.546 43.7655 59.7885 44.9271 59.7893C50.0879 59.7893 54.289 54.9848 54.4002 49.0103V23.1824C54.4361 20.2427 53.3203 17.4088 51.298 15.304C49.2758 13.1991 46.5128 11.9956 43.6164 11.958Z" fill="#B700AB"/>
<path d="M74.3034 30.8811H93.1968V45.2903H94.2431V15.3658H93.1968V29.8198H74.3034V15.3658H73.2422V45.2903H74.3034V30.8811ZM101.433 37.2187C101.433 42.8389 106.978 45.7088 112.554 45.7088C118.129 45.7088 123.719 42.8389 123.719 37.2187V23.3925C123.719 17.7723 118.129 14.9473 112.554 14.9473C106.978 14.9473 101.433 17.7723 101.433 23.3925V37.2187ZM102.494 23.3925C102.494 18.2357 107.486 15.9936 112.509 15.9487C117.546 15.9487 122.658 18.146 122.658 23.3925V37.2187C122.658 42.2111 117.591 44.6625 112.554 44.6625C107.486 44.6625 102.494 42.2111 102.494 37.2187V23.3925ZM131.791 15.3658H130.729V37.0842C130.729 42.7941 135.976 45.7088 141.207 45.7088C146.454 45.7088 151.745 42.7941 151.745 37.0842V15.3658H150.684V37.0842C150.684 42.1663 145.901 44.6924 141.207 44.6924C136.484 44.6924 131.791 42.1663 131.791 37.0842V15.3658ZM159.099 22.2116C159.383 17.7275 163.449 15.9487 167.679 15.9487C171.012 15.9487 174.435 17.2193 176.005 19.9247L176.976 19.551C175.108 16.2925 171.521 14.9473 167.679 14.9473C162.896 14.9473 158.203 17.2641 158.038 22.2116C157.784 27.8767 163.15 29.5657 167.634 30.4924C172.283 31.5089 176.932 32.9886 176.558 38.3099C175.96 42.7044 171.864 44.6924 167.724 44.6924C164.211 44.6924 160.699 43.2574 158.756 40.4772L157.784 40.8958C160.026 44.2738 163.957 45.7088 167.634 45.7088C172.537 45.7088 177.35 43.1378 177.694 38.3099C178.112 32.4356 172.791 30.4476 167.888 29.476C163.06 28.5045 158.756 26.651 159.099 22.2116ZM184.883 16.4121H201.624V15.3658H183.822V45.2903H201.624V44.229H184.883V30.9558H200.354V29.8198H184.883V16.4121Z" fill="white"/>
<path d="M206.108 30.4925C206.153 40.5969 213.761 45.6341 221.28 45.6341C226.736 45.6341 232.356 43.2575 234.478 37.0843C235.495 34.2144 235.495 31.3894 235.315 28.4298H221.325V34.9767H227.632C226.272 37.8018 224.329 38.6089 221.28 38.6089C216.811 38.6089 213.926 35.3952 213.926 30.4925C213.926 25.9785 216.512 22.2566 221.28 22.2566C224.284 22.2566 226.227 23.273 227.453 25.7991H234.897C233.462 18.445 227.244 15.3659 221.28 15.321C213.761 15.321 206.153 20.3882 206.108 30.4925ZM224.195 31.3445H232.027V31.8079C232.027 38.026 227.289 42.3308 221.28 42.3308C215.54 42.3756 209.785 38.1904 209.785 30.4925C209.785 22.8096 215.54 18.6543 221.28 18.6543C224.793 18.6543 228.559 20.2686 230.458 23.557H229.949C228.126 20.5675 224.748 19.0429 221.28 19.0429C214.853 18.9981 210.249 23.9905 210.249 30.4925C210.249 37.0843 214.853 41.9123 221.28 41.9123C227.154 41.9123 231.474 37.8914 231.564 31.8079H224.195V31.3445ZM244.867 18.8337H256.914V19.2522H245.33V29.7751H256.077V30.1936H245.33C245.33 34.05 245.33 37.8914 245.33 41.7329H257.303V42.1664H244.867C244.867 34.3489 244.867 26.5614 244.867 18.8337ZM259.799 15.6947C252.864 15.6947 248.17 15.6947 241.324 15.6947C241.324 25.5151 241.324 35.3952 241.324 45.2903C248.17 45.2903 253.237 45.2903 260.173 45.2903C260.173 43.0483 260.173 40.7613 260.173 38.5641C255.733 38.5641 253.192 38.5641 248.843 38.5641C248.843 36.8003 248.843 35.0963 248.843 33.3774H258.902C258.902 31.1353 258.902 28.8932 258.902 26.6511H248.843V22.4658C253.192 22.4658 255.39 22.4658 259.799 22.4658C259.799 20.1789 259.799 17.892 259.799 15.6947ZM289.425 45.3352H292.13V15.6947C289.544 15.6947 286.973 15.6947 284.387 15.6947V30.1936L269.425 15.5751H266.69V45.2903C269.261 45.2903 271.876 45.2903 274.507 45.2903V30.7466L289.425 45.3352ZM270.277 21.6587H270.74C273.58 24.409 276.405 27.2041 279.156 29.9843C282.16 32.7795 285.075 35.6942 288.034 38.6089V18.5796H288.498V39.3264H288.154C285.239 36.5013 282.414 33.751 279.574 30.9559C276.704 28.1309 273.745 25.2161 270.785 22.3762V42.3756H270.277V21.6587ZM304.521 41.7777V19.2522H300.411V18.8337C303.251 18.8337 306.166 18.8337 308.991 18.8337V19.2522H304.94V41.7777H309.334V42.2112C306.255 42.2112 303.161 42.2112 300.037 42.2112V41.7777H304.521ZM308.452 38.6538V22.3014H311.905C311.905 19.7604 311.905 18.1909 311.905 15.6947C307.092 15.6947 302.324 15.6947 297.496 15.6947C297.496 18.1909 297.496 19.7604 297.496 22.3014H300.964V38.6538H297.197C297.197 41.15 297.197 42.7045 297.197 45.2903C302.234 45.2903 307.182 45.2903 312.204 45.2903C312.204 42.7045 312.204 41.15 312.204 38.6538H308.452ZM320.709 18.8337H332.757V19.2522H321.173V29.7751H331.905V30.1936H321.173C321.173 34.05 321.173 37.8914 321.173 41.7329H333.13V42.1664H320.709C320.709 34.3489 320.709 26.5614 320.709 18.8337ZM335.627 15.6947C328.691 15.6947 323.998 15.6947 317.152 15.6947C317.152 25.5151 317.152 35.3952 317.152 45.2903C323.998 45.2903 329.08 45.2903 336 45.2903C336 43.0483 336 40.7613 336 38.5641C331.561 38.5641 329.035 38.5641 324.685 38.5641C324.685 36.8003 324.685 35.0963 324.685 33.3774H334.745C334.745 31.1353 334.745 28.8932 334.745 26.6511H324.685V22.4658C329.035 22.4658 331.232 22.4658 335.627 22.4658C335.627 20.1789 335.627 17.892 335.627 15.6947Z" fill="white"/>
</svg>
