<svg width="40" height="41" viewBox="0 0 40 41" fill="none" xmlns="http://www.w3.org/2000/svg">
<path d="M30.221 23.5379C20.266 21.2899 18.724 19.7479 16.476 9.79292C16.373 9.33792 15.968 9.01392 15.5 9.01392C15.032 9.01392 14.627 9.33792 14.524 9.79292C12.275 19.7479 10.734 21.2899 0.779023 23.5379C0.323023 23.6419 -0.000976562 24.0459 -0.000976562 24.5139C-0.000976562 24.9819 0.323023 25.3859 0.779023 25.4899C10.734 27.7389 12.275 29.2809 14.524 39.2349C14.627 39.6899 15.032 40.0139 15.5 40.0139C15.968 40.0139 16.373 39.6899 16.476 39.2349C18.725 29.2809 20.266 27.7389 30.221 25.4899C30.677 25.3859 31 24.9819 31 24.5139C31 24.0459 30.676 23.6419 30.221 23.5379Z" fill="white"/>
<path d="M39.2208 8.03901C33.9288 6.84401 33.1858 6.10101 31.9908 0.810006C31.8868 0.354006 31.4828 0.0310059 31.0148 0.0310059C30.5468 0.0310059 30.1428 0.354006 30.0388 0.810006C28.8438 6.10101 28.1008 6.84401 22.8098 8.03901C22.3538 8.14301 22.0308 8.54701 22.0308 9.01501C22.0308 9.48301 22.3538 9.88701 22.8098 9.99101C28.1008 11.186 28.8438 11.929 30.0388 17.221C30.1428 17.676 30.5468 18 31.0148 18C31.4828 18 31.8868 17.676 31.9908 17.221C33.1858 11.929 33.9288 11.186 39.2208 9.99101C39.6758 9.88701 39.9998 9.48301 39.9998 9.01501C39.9998 8.54701 39.6758 8.14301 39.2208 8.03901Z" fill="white"/>
</svg>
